<?xml version="1.0" standalone="no"?>
<svg
  width="600"
  height="600"
  viewBox="0 0 600 600"
  xmlns="http://www.w3.org/2000/svg"
>
  <g transform="translate(300,300)">
    <path d="M97.3,-134.1C126,-91.8,149.2,-61.1,168.4,-19.7C187.6,21.7,202.9,73.9,179.4,93.2C155.9,112.5,93.5,99,44.5,112.8C-4.6,126.5,-40.2,167.6,-67.8,166.2C-95.4,164.9,-114.8,121.2,-142.5,79.3C-170.2,37.4,-206.3,-2.6,-209.7,-46.3C-213.1,-90,-184,-137.3,-143.7,-177.5C-103.3,-217.7,-51.6,-250.9,-8.7,-240.5C34.3,-230.2,68.6,-176.4,97.3,-134.1Z" fill="#dcdcdc" />
  </g>
</svg>
    