<?xml version="1.0" standalone="no"?>
<svg
  width="600"
  height="600"
  viewBox="0 0 600 600"
  xmlns="http://www.w3.org/2000/svg"
>
  <g transform="translate(300,300)">
    <path d="M151.3,-151.5C190.4,-147.6,212.4,-94.5,208.1,-47.3C203.9,-0.1,173.4,41.2,147.4,84C121.4,126.7,99.8,171,68.5,177.9C37.2,184.8,-4,154.4,-32.3,127.4C-60.7,100.4,-76.2,76.7,-80.2,54C-84.2,31.3,-76.6,9.6,-74.1,-14.6C-71.7,-38.7,-74.4,-65.3,-62.9,-74.1C-51.4,-83,-25.7,-74,15.2,-92.1C56.1,-110.2,112.3,-155.5,151.3,-151.5Z" fill="#dcdcdc" />
  </g>
</svg>
    